<?xml version="1.0" standalone="no"?>
<!DOCTYPE svg PUBLIC "-//W3C//DTD SVG 20010904//EN"
 "http://www.w3.org/TR/2001/REC-SVG-20010904/DTD/svg10.dtd">
<svg version="1.0" xmlns="http://www.w3.org/2000/svg"
 width="840.000000pt" height="312.000000pt" viewBox="0 0 840.000000 312.000000"
 preserveAspectRatio="xMidYMid meet">

<g transform="translate(0.000000,312.000000) scale(0.100000,-0.100000)"
fill="#000000" stroke="none">
<path d="M3926 2701 c-21 -23 -128 -293 -576 -1451 -95 -245 -175 -451 -180
-458 -4 -9 -36 58 -85 175 -165 401 -165 402 -199 426 l-31 22 -1327 3 -1328
2 0 -105 0 -105 1218 0 c847 0 1229 -3 1257 -11 47 -13 80 -41 104 -89 10 -19
105 -245 211 -503 106 -257 194 -466 196 -465 1 2 147 386 324 853 178 468
324 852 326 854 1 2 40 -20 86 -48 46 -28 95 -51 109 -51 14 0 60 23 104 50
57 36 81 46 86 38 4 -7 132 -314 284 -683 153 -369 281 -673 285 -678 3 -4 68
150 145 343 76 192 147 358 158 367 18 17 101 18 1563 21 l1545 2 -3 108 -3
107 -1617 0 -1618 0 -23 -25 c-13 -14 -44 -74 -70 -135 -25 -60 -53 -128 -62
-150 -13 -29 -19 -35 -25 -25 -19 36 -309 764 -414 1040 -149 395 -208 538
-234 567 -18 21 -29 23 -105 23 -70 0 -87 -3 -101 -19z m164 -513 l54 -131
-35 -29 c-58 -48 -97 -47 -163 5 l-28 23 52 124 c53 126 59 140 64 140 1 0 27
-59 56 -132z"/>
<path d="M1576 2664 c-214 -48 -388 -223 -425 -428 -56 -305 113 -587 396
-661 77 -21 225 -20 305 0 198 51 352 203 403 395 19 72 19 221 0 294 -47 180
-191 333 -364 387 -88 27 -226 33 -315 13z m271 -239 c63 -31 117 -89 152
-164 22 -48 26 -69 26 -151 0 -79 -4 -103 -23 -141 -35 -72 -87 -125 -150
-156 -49 -24 -69 -28 -142 -28 -72 0 -92 4 -135 27 -112 59 -175 172 -175 314
0 197 151 344 335 329 35 -3 82 -16 112 -30z"/>
<path d="M820 2642 c-39 -19 -82 -77 -247 -331 -80 -123 -113 -182 -113 -203
0 -20 22 -64 66 -132 127 -193 265 -386 284 -396 12 -6 73 -9 149 -8 l129 3
-179 255 c-128 184 -179 263 -179 283 0 19 19 56 59 110 110 153 291 420 291
428 0 5 -51 9 -112 9 -88 0 -121 -4 -148 -18z"/>
<path d="M2480 2116 l0 -546 238 0 c284 0 341 8 447 59 167 82 266 224 296
424 32 213 -86 443 -275 536 -102 50 -181 62 -458 68 l-248 5 0 -546z m517
309 c70 -21 135 -81 175 -163 28 -57 33 -76 33 -142 0 -63 -5 -86 -31 -140
-36 -77 -82 -125 -144 -154 -37 -17 -70 -21 -182 -24 l-138 -4 0 321 0 321
118 0 c76 0 136 -5 169 -15z"/>
<path d="M5777 2654 c-4 -4 -7 -250 -7 -546 l0 -538 120 0 120 0 -2 543 -3
542 -111 3 c-60 1 -113 -1 -117 -4z"/>
<path d="M212 2113 l3 -538 100 0 100 0 3 538 2 537 -105 0 -105 0 2 -537z"/>
<path d="M4800 2112 l0 -539 378 1 377 1 3 113 3 112 -266 0 -265 0 0 425 0
425 -115 0 -115 0 0 -538z"/>
<path d="M6232 2113 l3 -538 108 -3 107 -3 0 322 c0 281 2 320 15 309 8 -6 72
-87 142 -178 250 -328 325 -422 346 -437 16 -11 49 -15 124 -15 l103 0 0 540
0 540 -120 0 -120 0 -2 -307 -3 -307 -135 169 c-269 341 -323 406 -347 425
-22 17 -41 20 -124 20 l-99 0 2 -537z"/>
<path d="M7390 2115 l0 -535 400 0 400 0 0 100 0 100 -282 2 -283 3 -3 118 -3
117 241 0 240 0 0 108 0 109 -122 6 c-66 4 -174 7 -240 7 l-118 0 0 100 0 100
285 0 285 0 0 100 0 100 -400 0 -400 0 0 -535z"/>
</g>
</svg>
